<?xml version="1.0"?><svg width="640" height="480" xmlns="http://www.w3.org/2000/svg">
 <title>Blue Recycle Logo</title>
 <g>
  <title>Layer 1</title>
  <g id="layer1">
   <g id="g3535">
    <path d="m393.11441,229.768219l83.391357,-50.897766l37.360931,73.581589c9.026306,40.203842 -40.429962,54.956314 -80.141571,52.560318l-40.610718,-75.244141z" id="path2742" stroke-width="0.25000000pt" fill-rule="evenodd" fill="#0000ff"/>
    <path d="m374.162689,282.328644l-43.860565,79.116882l43.860565,80.221802l1.079865,-32.086731l40.073425,0c14.621826,1.290955 33.573547,-8.483795 40.610718,-22.683716l51.445374,-96.270325c-16.967743,17.153503 -38.787506,21.578735 -63.897339,21.578735l-67.689636,0l-1.622406,-29.876648z" id="path2743" stroke-width="0.25000000pt" fill-rule="evenodd" fill="#0000ff"/>
    <path d="m276.164581,184.787506l-84.034409,-49.78772l44.835037,-69.090958c30.017303,-27.576157 66.649872,9.443138 83.873596,46.07576l-44.674225,72.802917z" id="path2751" stroke-width="0.25000000pt" fill-rule="evenodd" fill="#0000ff"/>
    <path d="m330.342255,176.203247l88.98703,0.778534l47.361664,-78.117279l-27.988098,14.606819l-19.448853,-35.793655c-5.992493,-13.687637 -23.552673,-25.873348 -39.123932,-25.270615l-107.345978,0.773575c22.90979,6.836227 37.290436,24.175507 49.476288,46.608131l32.855225,60.461548l-24.773346,15.952942z" id="path2752" stroke-width="0.25000000pt" fill-rule="evenodd" fill="#0000ff"/>
    <path d="m127.826012,180.663635l26.03904,20.343048l-24.50705,46.944687c-12.251007,21.649063 8.795288,42.735519 22.206665,50.079025c13.205383,7.223083 33.699066,8.082031 52.841644,7.820831l34.462585,-56.332626l26.034119,14.084427l-45.181625,-83.722931l-91.895378,0.783539z" id="path2753" stroke-width="0.25000000pt" fill-rule="evenodd" fill="#0000ff"/>
    <path d="m131.658554,289.421082l55.900681,103.282379c11.231323,14.345551 32.41832,17.736176 54.373718,17.213745l58.964661,0l0,-97.802368l-111.806396,-0.783539c-17.35939,1.039764 -40.078201,-2.606903 -57.432663,-21.910217z" id="path2754" stroke-width="0.25000000pt" fill-rule="evenodd" fill="#0000ff"/>
   </g>
  </g>
 </g>
</svg>